M48
; DRILL file {KiCad 5.1.5-52549c5~84~ubuntu18.04.1} date Fri 13 Mar 2020 06:27:23 PM MDT
; FORMAT={3:3/ absolute / metric / suppress trailing zeros}
; #@! TF.CreationDate,2020-03-13T18:27:23-06:00
; #@! TF.GenerationSoftware,Kicad,Pcbnew,5.1.5-52549c5~84~ubuntu18.04.1
; #@! TF.FileFunction,Plated,1,2,PTH
FMAT,2
METRIC,LZ
T1C0.800
T2C1.000
%
G90
G05
T1
X0254Y03302
X0279Y03302
X04953Y03302
X05203Y03302
X00635Y03175
X00885Y03175
X06608Y03302
X06858Y03302
T2
X00889Y01016
X01143Y01016
X03683Y04191
X03937Y04191
X04191Y04191
X01905Y00889
X02159Y00889
X02413Y00889
X02667Y00889
X00635Y04191
X00889Y04191
X05207Y008935
X05461Y008935
X01905Y04191
X02159Y04191
X02413Y04191
X06604Y00889
X06858Y00889
X06096Y04191
X0635Y04191
X06604Y04191
X03429Y00889
X03683Y00889
X03937Y00889
X04191Y00889
T0
M30
